<?xml version="1.0" encoding="utf-8"?>
<!-- Generator: Adobe Illustrator 28.1.0, SVG Export Plug-In . SVG Version: 6.00 Build 0)  -->
<svg version="1.1" id="Ebene_2" xmlns="http://www.w3.org/2000/svg" xmlns:xlink="http://www.w3.org/1999/xlink" x="0px" y="0px"
	 viewBox="0 0 500 500" style="enable-background:new 0 0 500 500;" xml:space="preserve">
<g>
	<path d="M250,262.5c-37.3,0-67.7-30.4-67.7-67.7s30.4-67.7,67.7-67.7s67.7,30.4,67.7,67.7S287.3,262.5,250,262.5z M250,135.4
		c-32.8,0-59.4,26.6-59.4,59.4s26.6,59.4,59.4,59.4c32.8,0,59.4-26.6,59.4-59.4S282.8,135.4,250,135.4z"/>
	<path d="M250,436.4c-35.7,0-70.5-10.2-100.5-29.4c-1.9-1.2-2.5-3.8-1.3-5.7c1.2-1.9,3.8-2.5,5.7-1.3c28.6,18.4,61.8,28.1,96,28.1
		c45.8,0,87.6-17.4,119.2-45.9l-11.6-48c-6.5-27-28-48.5-55-55.1c-31.7,19.6-73.5,19.6-105.2,0c-27,6.6-48.5,28.1-55,55.1
		l-12.1,49.9c-0.4,1.5-1.5,2.6-2.9,3c-1.4,0.4-3,0-4.1-1.1c-2.4-2.5-59.7-63.1-59.7-136.1c0-102.8,83.6-186.4,186.4-186.4
		c102.8,0,186.4,83.6,186.4,186.4C436.4,352.8,352.8,436.4,250,436.4z M301.8,270.6c0.3,0,0.6,0,0.9,0.1c30.8,6.8,55.5,31,62.9,61.7
		l10.5,43.3c32.1-32.2,52-76.7,52-125.7c0-98.2-79.9-178.1-178.1-178.1c-98.2,0-178.1,79.9-178.1,178.1
		c0,57.1,38.2,107.8,52.3,124.5l10.2-42.2c7.4-30.6,32.1-54.8,62.9-61.7c1.1-0.2,2.2,0,3.1,0.6c29.7,19.1,69.5,19.1,99.2,0
		C300.3,270.8,301.1,270.6,301.8,270.6z"/>
</g>
</svg>
